# xmcd
#
# Track frame offsets:
# 150
# 21859
# 42753
# 64121
# 80473
# 99417
# 125076
# 143964
#
# Disc length: 2222 seconds
#
#
# Revision: 0
# Processed by: cddbd v1.5.2PL0 Copyright (c) Steve Scherf et al.
# Submitted via: FreeRIP 2.945 
#
DISCID=6808ac08
DTITLE=Stephanie Mills - Stephanie
DYEAR=1900
DGENRE=R&B
TTITLE0=Winner
TTITLE1=Two Hearts (Ft. Teddy Pendergrass)
TTITLE2=Don't Stop Doin' What Cha Do
TTITLE3=Top Of My List
TTITLE4=I Believe In Love Songs
TTITLE5=Night Games
TTITLE6=My Love's Been Good To You
TTITLE7=Magic
EXTD=
EXTT0=
EXTT1=
EXTT2=
EXTT3=
EXTT4=
EXTT5=
EXTT6=
EXTT7=
PLAYORDER=
